<svg width="100%" viewBox="0 0 680 350" xmlns="http://www.w3.org/2000/svg">

<!-- Background -->
<rect x="0" y="0" width="680" height="340" rx="12" style="fill:rgb(13, 17, 23);stroke:none;"/>

<!-- Grid lines -->
<line x1="40" y1="0" x2="40" y2="340" style="fill:none;stroke:rgb(29, 158, 117);stroke-width:0.4px;opacity:0.25;"/>
<line x1="120" y1="0" x2="120" y2="340" style="fill:none;stroke:rgb(29, 158, 117);stroke-width:0.4px;opacity:0.25;"/>
<line x1="200" y1="0" x2="200" y2="340" style="fill:none;stroke:rgb(29, 158, 117);stroke-width:0.4px;opacity:0.25;"/>
<line x1="560" y1="0" x2="560" y2="340" style="fill:none;stroke:rgb(29, 158, 117);stroke-width:0.4px;opacity:0.25;"/>
<line x1="640" y1="0" x2="640" y2="340" style="fill:none;stroke:rgb(29, 158, 117);stroke-width:0.4px;opacity:0.25;"/>
<line x1="0" y1="60" x2="680" y2="60" style="fill:none;stroke:rgb(29, 158, 117);stroke-width:0.4px;opacity:0.25;"/>
<line x1="0" y1="280" x2="680" y2="280" style="fill:none;stroke:rgb(29, 158, 117);stroke-width:0.4px;opacity:0.25;"/>

<!-- Icon: firewall box (outer hexagon) -->
<polygon points="130,60 190,85 190,155 130,185 70,155 70,85" opacity="0.9" style="fill:rgb(29, 158, 117);stroke:none;"/>
<polygon points="130,72 178,93 178,150 130,176 82,150 82,93" style="fill:rgb(13, 17, 23);stroke:none;"/>

<!-- Firewall: 3 horizontal rule lines -->
<rect x="95" y="100" width="70" height="6" rx="1" fill="rgb(29, 158, 117)" opacity="0.8"/>
<rect x="95" y="114" width="50" height="6" rx="1" fill="rgb(55, 138, 221)" opacity="0.7"/>
<rect x="95" y="128" width="60" height="6" rx="1" fill="rgb(239, 159, 39)" opacity="0.6"/>

<!-- Firewall: vertical divider -->
<line x1="130" y1="96" x2="130" y2="148" stroke="rgb(29, 158, 117)" stroke-width="1" opacity="0.4"/>

<!-- Firewall: pass / block dots -->
<circle cx="154" cy="103" r="3" fill="rgb(29, 158, 117)" opacity="0.9"/>
<circle cx="154" cy="117" r="3" fill="rgb(224, 82, 82)" opacity="0.9"/>
<circle cx="154" cy="131" r="3" fill="rgb(239, 159, 39)" opacity="0.9"/>

<!-- WAN arrow in -->
<line x1="72" y1="123" x2="90" y2="123" stroke="rgb(55, 138, 221)" stroke-width="1.5" opacity="0.7"/>
<polygon points="90,119 98,123 90,127" fill="rgb(55, 138, 221)" opacity="0.7"/>

<!-- LAN arrow out -->
<line x1="162" y1="123" x2="180" y2="123" stroke="rgb(29, 158, 117)" stroke-width="1.5" opacity="0.7"/>
<polygon points="180,119 188,123 180,127" fill="rgb(29, 158, 117)" opacity="0.7"/>

<!-- Text: title -->
<text x="220" y="135" style="fill:rgb(255, 255, 255);font-family:monospace;font-size:28px;font-weight:700;text-anchor:start;">HOMELAB</text>
<text x="220" y="168" style="fill:rgb(29, 158, 117);font-family:monospace;font-size:28px;font-weight:700;text-anchor:start;">SECURITY</text>

<!-- Subtitle -->
<text x="222" y="195" style="fill:rgb(29, 158, 117);font-family:monospace;font-size:12px;font-weight:400;text-anchor:start;">pfSense · FIREWALL · SEGMENTATION</text>

<!-- Badges -->
<rect x="220" y="208" width="66" height="18" rx="3" fill="rgb(29, 158, 117)" opacity="0.15"/>
<rect x="292" y="208" width="54" height="18" rx="3" fill="rgb(55, 138, 221)" opacity="0.15"/>
<rect x="352" y="208" width="58" height="18" rx="3" fill="rgb(239, 159, 39)" opacity="0.15"/>
<rect x="416" y="208" width="34" height="18" rx="3" fill="rgb(224, 82, 82)" opacity="0.15"/>

<text x="224" y="221" style="fill:rgb(29, 158, 117);font-family:monospace;font-size:10px;text-anchor:start;">WAN/LAN/DMZ</text>
<text x="296" y="221" style="fill:rgb(55, 138, 221);font-family:monospace;font-size:10px;text-anchor:start;">ISO 27001</text>
<text x="356" y="221" style="fill:rgb(239, 159, 39);font-family:monospace;font-size:10px;text-anchor:start;">pfSense CE</text>
<text x="420" y="221" style="fill:rgb(224, 82, 82);font-family:monospace;font-size:10px;text-anchor:start;">NIS2</text>

<!-- Author -->
<text x="220" y="250" style="fill:rgb(255, 255, 255);font-family:monospace;font-size:10px;opacity:0.6;text-anchor:start;">Maxime Belliard</text>
<text x="220" y="265" style="fill:rgb(255, 255, 255);font-family:monospace;font-size:10px;opacity:0.8;text-anchor:start;">github.com/MaxBell10</text>

<!-- Decorative network nodes top-right -->
<circle cx="600" cy="80" r="3" fill="rgb(29, 158, 117)" opacity="0.6"/>
<circle cx="630" cy="100" r="2" fill="rgb(55, 138, 221)" opacity="0.5"/>
<circle cx="615" cy="120" r="2.5" fill="rgb(239, 159, 39)" opacity="0.5"/>
<circle cx="590" cy="140" r="2" fill="rgb(29, 158, 117)" opacity="0.4"/>
<circle cx="645" cy="150" r="3" fill="rgb(55, 138, 221)" opacity="0.5"/>
<circle cx="605" cy="170" r="2" fill="rgb(239, 159, 39)" opacity="0.4"/>
<circle cx="635" cy="190" r="2.5" fill="rgb(29, 158, 117)" opacity="0.5"/>
<circle cx="580" cy="200" r="2" fill="rgb(55, 138, 221)" opacity="0.4"/>

<line x1="600" y1="80" x2="630" y2="100" style="stroke:rgb(55, 138, 221);stroke-width:0.8px;opacity:0.4;"/>
<line x1="630" y1="100" x2="615" y2="120" style="stroke:rgb(55, 138, 221);stroke-width:0.8px;opacity:0.4;"/>
<line x1="615" y1="120" x2="645" y2="150" style="stroke:rgb(55, 138, 221);stroke-width:0.8px;opacity:0.4;"/>
<line x1="645" y1="150" x2="635" y2="190" style="stroke:rgb(55, 138, 221);stroke-width:0.8px;opacity:0.4;"/>
<line x1="600" y1="80" x2="590" y2="140" style="stroke:rgb(55, 138, 221);stroke-width:0.8px;opacity:0.4;"/>
<line x1="590" y1="140" x2="580" y2="200" style="stroke:rgb(55, 138, 221);stroke-width:0.8px;opacity:0.4;"/>
<line x1="615" y1="120" x2="605" y2="170" style="stroke:rgb(55, 138, 221);stroke-width:0.8px;opacity:0.4;"/>

</svg>
